<?xml version="1.0" encoding="utf-8"?>
<!-- Generator: Adobe Illustrator 16.0.0, SVG Export Plug-In . SVG Version: 6.00 Build 0)  -->
<!DOCTYPE svg PUBLIC "-//W3C//DTD SVG 1.1//EN" "http://www.w3.org/Graphics/SVG/1.1/DTD/svg11.dtd">
<svg version="1.1" xmlns="http://www.w3.org/2000/svg" xmlns:xlink="http://www.w3.org/1999/xlink" x="0px" y="0px" width="612px"
	 height="792px" viewBox="0 0 612 792" enable-background="new 0 0 612 792" xml:space="preserve">
<g id="Layer_1">
</g>
<g id="korte_x5F_lijntjes">
	
		<line fill="none" stroke="#8E8D8E" stroke-width="0.4" stroke-miterlimit="10" x1="232.875" y1="277.833" x2="232.875" y2="448.333"/>
	
		<line fill="none" stroke="#8E8D8E" stroke-width="0.4" stroke-miterlimit="10" x1="208.875" y1="339.239" x2="208.875" y2="447.667"/>
	
		<line fill="none" stroke="#8E8D8E" stroke-width="0.4" stroke-miterlimit="10" x1="184.875" y1="371.47" x2="184.875" y2="448.333"/>
	<g>
		<g>
			
				<line fill="none" stroke="#545453" stroke-width="0.5" stroke-linecap="round" stroke-miterlimit="10" x1="89" y1="356.961" x2="89" y2="357.461"/>
			
				<line fill="none" stroke="#545453" stroke-width="0.5" stroke-linecap="round" stroke-miterlimit="10" stroke-dasharray="0.8785,1.757" x1="89" y1="359.218" x2="89" y2="366.247"/>
			
				<line fill="none" stroke="#545453" stroke-width="0.5" stroke-linecap="round" stroke-miterlimit="10" x1="89" y1="367.125" x2="89" y2="367.625"/>
		</g>
	</g>
	<g>
		<g>
			
				<line fill="none" stroke="#545453" stroke-width="0.5" stroke-linecap="round" stroke-miterlimit="10" x1="113" y1="368.666" x2="113" y2="369.166"/>
			
				<line fill="none" stroke="#545453" stroke-width="0.5" stroke-linecap="round" stroke-miterlimit="10" stroke-dasharray="0.961,1.922" x1="113" y1="371.088" x2="113" y2="387.425"/>
			
				<line fill="none" stroke="#545453" stroke-width="0.5" stroke-linecap="round" stroke-miterlimit="10" x1="113" y1="388.386" x2="113" y2="388.886"/>
		</g>
	</g>
	
		<line fill="none" stroke="#545453" stroke-width="0.5" stroke-linecap="round" stroke-miterlimit="10" stroke-dasharray="1,2" x1="137" y1="367.135" x2="137" y2="402.562"/>
	
		<line fill="none" stroke="#545453" stroke-width="0.5" stroke-linecap="round" stroke-miterlimit="10" stroke-dasharray="1,2" x1="160.667" y1="357.461" x2="160.667" y2="412.416"/>
	<g>
		<g>
			
				<line fill="none" stroke="#545453" stroke-width="0.5" stroke-linecap="round" stroke-miterlimit="10" x1="184.469" y1="343.012" x2="184.469" y2="343.512"/>
			
				<line fill="none" stroke="#545453" stroke-width="0.5" stroke-linecap="round" stroke-miterlimit="10" stroke-dasharray="1.0164,2.0328" x1="184.469" y1="345.545" x2="184.469" y2="417.709"/>
			
				<line fill="none" stroke="#545453" stroke-width="0.5" stroke-linecap="round" stroke-miterlimit="10" x1="184.469" y1="418.726" x2="184.469" y2="419.226"/>
		</g>
	</g>
	
		<line fill="none" stroke="#545453" stroke-width="0.5" stroke-linecap="round" stroke-miterlimit="10" stroke-dasharray="1,2" x1="208.5" y1="315.875" x2="208.5" y2="422.66"/>
	
		<line fill="none" stroke="#545453" stroke-width="0.5" stroke-linecap="round" stroke-miterlimit="10" stroke-dasharray="1,2" x1="232.5" y1="259.5" x2="232.5" y2="425.719"/>
	<line fill="none" stroke="#8E8D8E" stroke-width="0.4" stroke-miterlimit="10" x1="161" y1="394.121" x2="161" y2="448.333"/>
	<line fill="none" stroke="#8E8D8E" stroke-width="0.4" stroke-miterlimit="10" x1="137" y1="412.182" x2="137" y2="448.333"/>
	<line fill="none" stroke="#8E8D8E" stroke-width="0.4" stroke-miterlimit="10" x1="113" y1="427.208" x2="113" y2="448.697"/>
	<line fill="none" stroke="#8E8D8E" stroke-width="0.4" stroke-miterlimit="10" x1="89" y1="438.85" x2="89" y2="448.145"/>
	<path fill="none" stroke="#69BD45" stroke-miterlimit="10" d="M232.875,255.338c0,0-11.378,59.649-48,86.882
		c-35.288,26.241-88.997,53.181-119.5-21.252"/>
	<path fill="none" stroke="#8E8D8E" stroke-width="0.4" stroke-miterlimit="10" d="M178.417,280.25"/>
	<path fill="none" stroke="#69BD45" stroke-miterlimit="10" d="M215.5,311.833"/>
	<path fill="none" stroke="#545453" stroke-width="0.5" stroke-linecap="round" stroke-miterlimit="10" stroke-dasharray="1,2" d="
		M167.75,283.25"/>
</g>
<g id="grafiek_x5F_basislijnen">
	<g>
		<g>
			<polyline fill="none" stroke="#030202" stroke-width="0.75" stroke-miterlimit="10" points="65,247.364 65,299.418 65,448.333 
				285.72,448.333 			"/>
			<g>
				<path fill="#030202" d="M65,248.71l2.702,1.644l0.062-0.092l-1.75-4.406c-0.337-1.535-0.675-3.07-1.013-4.605
					c-0.338,1.535-0.675,3.07-1.013,4.605l-1.75,4.406l0.046,0.092L65,248.71z"/>
			</g>
			<g>
				<path fill="#030202" d="M284.374,448.333l-1.644-2.702l0.092-0.062l4.406,1.75c1.535,0.338,3.07,0.676,4.605,1.014
					c-1.535,0.338-3.07,0.675-4.605,1.014l-4.406,1.75l-0.092-0.046L284.374,448.333z"/>
			</g>
		</g>
	</g>
	<path fill="none" stroke="#000000" stroke-width="0.5" stroke-miterlimit="10" d="M272.5,428.5"/>
	<path fill="none" stroke="#000000" stroke-width="0.5" stroke-miterlimit="10" d="M77.75,428.5"/>
	<path fill="#FFFFFF" stroke="#000000" stroke-width="0.5" stroke-miterlimit="10" d="M237,267"/>
	<polygon fill="#FFFFFF" stroke="#000000" stroke-width="0.5" stroke-miterlimit="10" points="65,448.333 65,448.333 65,448.333 	
		"/>
	<polygon fill="#FFFFFF" stroke="#000000" stroke-width="0.5" stroke-miterlimit="10" points="65,322.25 65,322.25 65,322.25 	"/>
</g>
<g id="kromme_x5F_1">
	<path fill="none" stroke="#3A4EA1" stroke-miterlimit="10" d="M65,448.333c0,0,143.875-44.833,167.5-170.5"/>
	<path fill="none" stroke="#C05F28" stroke-miterlimit="10" d="M65,320.25c0,0,15,110.5,205.5,106"/>
</g>
<g id="som">
</g>
<g id="pijltjes">
</g>
<g id="minimum">
	
		<line fill="none" stroke="#B62025" stroke-width="0.55" stroke-linecap="round" stroke-miterlimit="10" stroke-dasharray="2,2" x1="121.333" y1="369.376" x2="121.333" y2="447.667"/>
	
		<line fill="none" stroke="#B62025" stroke-width="0.55" stroke-linecap="round" stroke-miterlimit="10" stroke-dasharray="2,2" x1="65.167" y1="369.917" x2="121.542" y2="369.917"/>
	<circle fill="#B62025" cx="121.333" cy="369.376" r="1.751"/>
	<circle fill="#B62025" cx="121.542" cy="448.333" r="1.751"/>
	<circle fill="#B62025" cx="65" cy="369.917" r="1.751"/>
	<rect x="87" y="449.333" fill="none" width="4" height="4.667"/>
	<text transform="matrix(1 0 0 1 87 453.5928)" font-family="'MyriadPro-Regular'" font-size="6">n</text>
	<rect x="87" y="450.167" fill="none" width="4" height="4.667"/>
	<text transform="matrix(1 0 0 1 87 454.4268)" font-family="'MyriadPro-Regular'" font-size="6">_</text>
	<rect x="87.156" y="455.625" fill="none" width="4" height="4.667"/>
	<text transform="matrix(1 0 0 1 87.1562 459.1748)" font-family="'MyriadPro-Regular'" font-size="5">2</text>
	<rect x="110.922" y="449.354" fill="none" width="4" height="4.667"/>
	<text transform="matrix(1 0 0 1 110.9219 453.6143)" font-family="'MyriadPro-Regular'" font-size="6">n</text>
	<rect x="110.922" y="450.188" fill="none" width="4" height="4.667"/>
	<text transform="matrix(1 0 0 1 110.9219 454.4482)" font-family="'MyriadPro-Regular'" font-size="6">_</text>
	<rect x="111.078" y="455.646" fill="none" width="4" height="4.667"/>
	<text transform="matrix(1 0 0 1 111.0781 459.1963)" font-family="'MyriadPro-Regular'" font-size="5">4</text>
	<rect x="134.922" y="455.397" fill="none" width="4" height="4.667"/>
	<text transform="matrix(1 0 0 1 134.9219 458.9473)" font-family="'MyriadPro-Regular'" font-size="5">6</text>
	<rect x="158.922" y="455.521" fill="none" width="4" height="4.667"/>
	<text transform="matrix(1 0 0 1 158.9219 459.0713)" font-family="'MyriadPro-Regular'" font-size="5">8</text>
	<rect x="182" y="455.258" fill="none" width="6.469" height="4.946"/>
	<text transform="matrix(1 0 0 1 182 458.8076)" font-family="'MyriadPro-Regular'" font-size="5">10</text>
	<rect x="205.562" y="455.521" fill="none" width="6.469" height="4.946"/>
	<text transform="matrix(1 0 0 1 205.5625 459.0713)" font-family="'MyriadPro-Regular'" font-size="5">12</text>
	<rect x="230.021" y="455.521" fill="none" width="6.469" height="4.946"/>
	<text transform="matrix(1 0 0 1 230.021 459.0713)" font-family="'MyriadPro-Regular'" font-size="5">14</text>
	<rect x="134.922" y="449.167" fill="none" width="4" height="4.667"/>
	<text transform="matrix(1 0 0 1 134.9219 453.4268)" font-family="'MyriadPro-Regular'" font-size="6">n</text>
	<rect x="134.922" y="450.001" fill="none" width="4" height="4.667"/>
	<text transform="matrix(1 0 0 1 134.9219 454.2607)" font-family="'MyriadPro-Regular'" font-size="6">_</text>
	<rect x="158.922" y="449.188" fill="none" width="4" height="4.667"/>
	<text transform="matrix(1 0 0 1 158.9219 453.4482)" font-family="'MyriadPro-Regular'" font-size="6">n</text>
	<rect x="158.922" y="450.022" fill="none" width="4" height="4.667"/>
	<text transform="matrix(1 0 0 1 158.9219 454.2822)" font-family="'MyriadPro-Regular'" font-size="6">_</text>
	<rect x="105.078" y="467.958" fill="none" width="120.552" height="16.376"/>
	<text transform="matrix(1 0 0 1 105.0781 473.6377)" font-family="'MyriadPro-Regular'" font-size="8">Hoeveelheid bytes na reductie</text>
	<rect x="182.797" y="449.167" fill="none" width="4" height="4.667"/>
	<text transform="matrix(1 0 0 1 182.7969 453.4268)" font-family="'MyriadPro-Regular'" font-size="6">n</text>
	<rect x="182.797" y="450.001" fill="none" width="4" height="4.667"/>
	<text transform="matrix(1 0 0 1 182.7969 454.2607)" font-family="'MyriadPro-Regular'" font-size="6">_</text>
	<rect x="206.797" y="449.376" fill="none" width="4" height="4.667"/>
	<text transform="matrix(1 0 0 1 206.7969 453.6357)" font-family="'MyriadPro-Regular'" font-size="6">n</text>
	<rect x="206.797" y="450.21" fill="none" width="4" height="4.667"/>
	<text transform="matrix(1 0 0 1 206.7969 454.4697)" font-family="'MyriadPro-Regular'" font-size="6">_</text>
	<rect x="230.797" y="449.376" fill="none" width="4" height="4.667"/>
	<text transform="matrix(1 0 0 1 230.7969 453.6357)" font-family="'MyriadPro-Regular'" font-size="6">n</text>
	<rect x="230.797" y="450.21" fill="none" width="4" height="4.667"/>
	<text transform="matrix(1 0 0 1 230.7969 454.4697)" font-family="'MyriadPro-Regular'" font-size="6">_</text>
	<rect x="62.833" y="449.397" fill="none" width="4" height="4.667"/>
	<text transform="matrix(1 0 0 1 62.833 453.6572)" font-family="'MyriadPro-Regular'" font-size="6">n</text>
	<rect x="62.833" y="450.231" fill="none" width="4" height="4.667"/>
	<text transform="matrix(1 0 0 1 62.833 454.4912)" font-family="'MyriadPro-Regular'" font-size="6">_</text>
	<rect x="62.989" y="455.689" fill="none" width="4" height="4.667"/>
	<text transform="matrix(1 0 0 1 62.9893 459.2393)" font-family="'MyriadPro-Regular'" font-size="5">1</text>
	<rect x="48.333" y="313.041" fill="none" width="10.5" height="59.942"/>
	<text transform="matrix(0 -1 1 0 54.0132 372.9834)"><tspan x="0" y="0" font-family="'MyriadPro-Regular'" font-size="8">Energie (</tspan><tspan x="29.319" y="0" font-family="'MyriadPro-It'" font-size="8">mJ</tspan><tspan x="38.695" y="0" font-family="'MyriadPro-Regular'" font-size="8">)</tspan></text>
</g>
</svg>
